<svg width="20" height="20" viewBox="0 0 20 20" fill="none" xmlns="http://www.w3.org/2000/svg">
<g clip-path="url(#clip0_1101_210)">
<path d="M11.0518 5.04902C11.0518 5.6299 10.5809 6.1008 10 6.1008C9.41914 6.1008 8.94824 5.6299 8.94824 5.04902C8.94824 4.46814 9.41914 3.99724 10 3.99724C10.5809 3.99724 11.0518 4.46814 11.0518 5.04902Z" stroke="white" stroke-width="1.5"/>
<path d="M10.6249 5.04902C10.6249 5.39419 10.3451 5.67402 9.9999 5.67402C9.65472 5.67402 9.3749 5.39419 9.3749 5.04902C9.3749 4.70384 9.65472 4.42402 9.9999 4.42402C10.3451 4.42402 10.6249 4.70384 10.6249 5.04902Z" stroke="white" stroke-width="1.5"/>
<path d="M11.0518 10C11.0518 10.5809 10.5809 11.0518 10 11.0518C9.41914 11.0518 8.94824 10.5809 8.94824 10C8.94824 9.41912 9.41914 8.94822 10 8.94822C10.5809 8.94822 11.0518 9.41912 11.0518 10Z" stroke="white" stroke-width="1.5"/>
<path d="M10.6249 10C10.6249 10.3452 10.3451 10.625 9.9999 10.625C9.65472 10.625 9.3749 10.3452 9.3749 10C9.3749 9.65482 9.65472 9.375 9.9999 9.375C10.3451 9.375 10.6249 9.65482 10.6249 10Z" stroke="white" stroke-width="1.5"/>
<path d="M11.0518 14.951C11.0518 15.5319 10.5809 16.0028 10 16.0028C9.41914 16.0028 8.94824 15.5319 8.94824 14.951C8.94824 14.3701 9.41914 13.8992 10 13.8992C10.5809 13.8992 11.0518 14.3701 11.0518 14.951Z" stroke="white" stroke-width="1.5"/>
<path d="M10.6249 14.951C10.6249 15.2962 10.3451 15.576 9.9999 15.576C9.65472 15.576 9.3749 15.2962 9.3749 14.951C9.3749 14.6058 9.65472 14.326 9.9999 14.326C10.3451 14.326 10.6249 14.6058 10.6249 14.951Z" stroke="white" stroke-width="1.5"/>
</g>
<defs>
<clipPath id="clip0_1101_210">
<rect width="20" height="20" fill="white"/>
</clipPath>
</defs>
</svg>
