<svg xmlns="http://www.w3.org/2000/svg" viewBox="0 0 38 21" fill="currentColor">
  <path d="M27.289 5.517c-.259.348-.643.88-1.202 1.681-.843 1.206-1.862 2.312-2.703 3.033A7.28 7.28 0 0 1 19 11.692a7.28 7.28 0 0 1-4.385-1.46c-.84-.722-1.86-1.828-2.702-3.034-.56-.8-.944-1.332-1.202-1.681A13.14 13.14 0 0 0 0 0v2.923c3.477 0 6.555 1.734 8.404 4.385.155.208.346.487.563.804.378.553.836 1.222 1.324 1.839.737.93 1.41 1.603 1.41 1.603A10.2 10.2 0 0 0 19 14.615a10.2 10.2 0 0 0 7.297-3.061s.674-.674 1.41-1.603c.49-.617.947-1.286 1.325-1.839.217-.317.408-.596.564-.804a10.23 10.23 0 0 1 8.403-4.385V0a13.14 13.14 0 0 0-10.71 5.517m2.79 5.964c.676-.978 1.564-2.262 2.529-3.259A7.29 7.29 0 0 1 38 5.846v2.923a4.37 4.37 0 0 0-3.268 1.462s-.544.613-1.007 1.323-2.125 3.043-3.235 4.076A16.03 16.03 0 0 1 19 20.46c-4.501 0-8.571-1.85-11.49-4.831-1.11-1.033-2.772-3.366-3.235-4.076s-1.007-1.323-1.007-1.323A4.37 4.37 0 0 0 0 8.769V5.846c2.136 0 4.056.916 5.393 2.376.965.997 1.853 2.282 2.53 3.26q.17.248.323.466c.506.722.95 1.206.95 1.206A13.12 13.12 0 0 0 19 17.538c3.896 0 7.396-1.693 9.805-4.384 0 0 .444-.484.95-1.206zm7.297.352.005-.002.005-.003v.001c.187-.087.395-.136.614-.136v2.923h-2.987c.102-.165.387-.577.724-1.03l.22-.303c.333-.468.702-.983 1.187-1.312q.105-.076.223-.133zm-36.742.005q.117.056.222.132c.485.33.854.844 1.188 1.311q.11.158.22.303c.337.454.621.866.723 1.031H0v-2.923c.22 0 .427.05.614.136l.01.005zm4.657 5.7H0v2.924h8.871a19 19 0 0 1-3.581-2.924M38 20.463h-8.872a19 19 0 0 0 3.581-2.924H38z"/>
</svg>
